<mxfile host="Electron" modified="2025-01-02T21:20:53.539Z" agent="Mozilla/5.0 (Windows NT 10.0; Win64; x64) AppleWebKit/537.36 (KHTML, like Gecko) draw.io/22.1.16 Chrome/120.0.6099.109 Electron/28.1.0 Safari/537.36" etag="Um95yyOamDSXFcpoU_Kj" version="22.1.16" type="device">
  <diagram name="Side-1" id="FZBb4fh20i7ftB1jNeWU">
    <mxGraphModel dx="1098" dy="1180" grid="1" gridSize="10" guides="1" tooltips="1" connect="1" arrows="1" fold="1" page="1" pageScale="1" pageWidth="827" pageHeight="1169" math="0" shadow="0">
      <root>
        <mxCell id="0" />
        <mxCell id="1" parent="0" />
        <mxCell id="FtknolHnRps3kEwxuWY--1" value="ActivateEffects" style="swimlane;fontStyle=1;align=center;verticalAlign=top;childLayout=stackLayout;horizontal=1;startSize=26;horizontalStack=0;resizeParent=1;resizeParentMax=0;resizeLast=0;collapsible=1;marginBottom=0;whiteSpace=wrap;html=1;" vertex="1" parent="1">
          <mxGeometry x="334" y="520" width="290" height="128" as="geometry" />
        </mxCell>
        <mxCell id="FtknolHnRps3kEwxuWY--2" value="- isReady: bool&lt;br&gt;- ap: AudioProcessing*" style="text;strokeColor=none;fillColor=none;align=left;verticalAlign=top;spacingLeft=4;spacingRight=4;overflow=hidden;rotatable=0;points=[[0,0.5],[1,0.5]];portConstraint=eastwest;whiteSpace=wrap;html=1;" vertex="1" parent="FtknolHnRps3kEwxuWY--1">
          <mxGeometry y="26" width="290" height="34" as="geometry" />
        </mxCell>
        <mxCell id="FtknolHnRps3kEwxuWY--3" value="" style="line;strokeWidth=1;fillColor=none;align=left;verticalAlign=middle;spacingTop=-1;spacingLeft=3;spacingRight=3;rotatable=0;labelPosition=right;points=[];portConstraint=eastwest;strokeColor=inherit;" vertex="1" parent="FtknolHnRps3kEwxuWY--1">
          <mxGeometry y="60" width="290" height="8" as="geometry" />
        </mxCell>
        <mxCell id="FtknolHnRps3kEwxuWY--4" value="+&amp;nbsp;ActivateEffects():&amp;nbsp;ActivateEffects&lt;br&gt;+&amp;nbsp;ActivateEffects(AudioProcessing*):&amp;nbsp;ActivateEffects&lt;br&gt;+ Execute(): void" style="text;strokeColor=none;fillColor=none;align=left;verticalAlign=top;spacingLeft=4;spacingRight=4;overflow=hidden;rotatable=0;points=[[0,0.5],[1,0.5]];portConstraint=eastwest;whiteSpace=wrap;html=1;" vertex="1" parent="FtknolHnRps3kEwxuWY--1">
          <mxGeometry y="68" width="290" height="60" as="geometry" />
        </mxCell>
      </root>
    </mxGraphModel>
  </diagram>
</mxfile>
